<svg id="Capa_1" enable-background="new 0 0 512 512" fill="#fff" height="512" viewBox="0 0 512 512" width="512" xmlns="http://www.w3.org/2000/svg"><path d="m307 102c-17.263 0-34.405 2.161-51.02 6.418-16.305-4.188-33.387-6.418-50.98-6.418-113.038 0-205 91.963-205 205s91.962 205 205 205c17.593 0 34.675-2.23 50.98-6.418 16.615 4.257 33.757 6.418 51.02 6.418 113.037 0 205-91.963 205-205s-91.963-205-205-205zm-277 205c0-96.495 78.505-175 175-175s175 78.505 175 175-78.505 175-175 175-175-78.505-175-175zm281.774 174.933c58.866-36.063 98.226-100.986 98.226-174.933s-39.36-138.87-98.226-174.933c94.297 2.539 170.226 80.035 170.226 174.933s-75.929 172.394-170.226 174.933z"/><path d="m205 222c-46.869 0-85 38.131-85 85s38.131 85 85 85 85-38.131 85-85-38.131-85-85-85zm0 140c-30.327 0-55-24.673-55-55s24.673-55 55-55 55 24.673 55 55-24.673 55-55 55z"/><path d="m181.754 71.967c2.929 2.929 6.768 4.394 10.606 4.394s7.678-1.465 10.607-4.394c5.857-5.857 5.857-15.355 0-21.213l-21.213-21.213c-5.857-5.857-15.355-5.857-21.213 0-5.857 5.857-5.857 15.355 0 21.213z"/><path d="m319.64 76.36c3.839 0 7.678-1.465 10.606-4.394l21.213-21.213c5.858-5.857 5.858-15.355 0-21.213-5.857-5.857-15.355-5.857-21.213 0l-21.213 21.213c-5.858 5.857-5.858 15.355 0 21.213 2.929 2.93 6.768 4.394 10.607 4.394z"/><path d="m256 60c8.284 0 15-6.716 15-15v-30c0-8.284-6.716-15-15-15s-15 6.716-15 15v30c0 8.284 6.716 15 15 15z"/></svg>