<svg xmlns="http://www.w3.org/2000/svg" xmlns:xlink="http://www.w3.org/1999/xlink" viewBox="0 0 429.381 133.832" width="100%">
  <defs>
    <linearGradient id="b">
      <stop offset="0" stop-color="#0ff"/>
      <stop offset="1" stop-color="#8ab1ff"/>
    </linearGradient>
    <linearGradient id="a">
      <stop offset="0" stop-color="#0ff"/>
      <stop offset="1" stop-color="#6887ff"/>
    </linearGradient>
    <linearGradient xlink:href="#a" id="d" x1="35.29" y1="414.076" x2="435.09" y2="121.41" gradientUnits="userSpaceOnUse"/>
    <linearGradient xlink:href="#a" id="c" x1="598.995" y1="351.442" x2="-104.891" y2="185.91" gradientUnits="userSpaceOnUse"/>
    <radialGradient xlink:href="#b" id="e" cx="256" cy="256" fx="256" fy="256" r="88" gradientUnits="userSpaceOnUse"/>
  </defs>
  <g fill="#0ff">
    <path d="M477.81 224.54a221.608 221.608 0 00-42.72-103.13 32 32 0 00-44.5-44.5 221.608 221.608 0 00-103.13-42.72 31.99 31.99 0 00-62.92 0 221.608 221.608 0 00-103.13 42.72 32 32 0 00-44.5 44.5 221.608 221.608 0 00-42.72 103.13 31.99 31.99 0 000 62.92 221.608 221.608 0 0042.72 103.13 32 32 0 0044.5 44.5 221.608 221.608 0 00103.13 42.72 31.99 31.99 0 0062.92 0 221.608 221.608 0 00103.13-42.72 32 32 0 0044.5-44.5 221.608 221.608 0 0042.72-103.13 31.99 31.99 0 000-62.92zM32.45 270.1a15.989 15.989 0 010-28.2c-.29 4.68-.45 9.37-.45 14.1s.16 9.42.45 14.1zm387.6-178.16a16.068 16.068 0 014 15.97q-4.65-5.28-9.66-10.3-5.01-5.02-10.29-9.65a16.035 16.035 0 0115.95 3.98zM256 24a16.022 16.022 0 0114.1 8.45c-4.68-.29-9.37-.45-14.1-.45s-9.42.16-14.1.45A16.022 16.022 0 01256 24zM91.94 91.95a16.057 16.057 0 0115.96-3.99q-5.265 4.65-10.29 9.65-5.025 5-9.65 10.29a16.035 16.035 0 013.98-15.95zm.01 328.11a16.068 16.068 0 01-4-15.97q4.65 5.28 9.66 10.3 5.01 5.02 10.29 9.65a16.035 16.035 0 01-15.95-3.98zM256 488a16.022 16.022 0 01-14.1-8.45c4.68.29 9.37.45 14.1.45s9.42-.16 14.1-.45A16.022 16.022 0 01256 488zm164.06-67.95a16.068 16.068 0 01-15.97 4q5.28-4.65 10.3-9.66 5.02-5.01 9.65-10.29a16.035 16.035 0 01-3.98 15.95zM256 464c-114.69 0-208-93.31-208-208S141.31 48 256 48s208 93.31 208 208-93.31 208-208 208zm223.55-193.9c.29-4.68.45-9.37.45-14.1s-.16-9.42-.45-14.1a15.989 15.989 0 010 28.2z" fill="url(#c)" transform="translate(145.616 -2.158) scale(.26982)"/>
    <path d="M256 64C150.131 64 64 150.131 64 256s86.131 192 192 192 192-86.131 192-192S361.869 64 256 64zm0 368c-97.047 0-176-78.953-176-176S158.953 80 256 80s176 78.953 176 176-78.953 176-176 176z" fill="url(#d)" transform="translate(145.616 -2.158) scale(.26982)"/>
    <path d="M256 168a88 88 0 1088 88 88.1 88.1 0 00-88-88zm0 160a72 72 0 1172-72 72.081 72.081 0 01-72 72z" fill="url(#e)" transform="translate(145.616 -2.158) scale(.26982)"/>
  </g>
  <path fill="#5ebfff" d="M0 43.48h429.381v48.382H.001z" opacity=".557"/>
  <text style="line-height:1.25;-inkscape-font-specification:'Ubuntu Mono Bold'" x="41.121" y="160.373" font-weight="700" font-size="56.444" font-family="Ubuntu Mono" fill="#fff" stroke-width="1.156" transform="translate(-39.31 -75.96)">
    <tspan x="41.121" y="160.373" style="-inkscape-font-specification:'Ubuntu Mono Bold'">DRUMSET BUILDER</tspan>
  </text>
</svg>