<?xml version="1.0" encoding="UTF-8" standalone="no"?>
<svg
   xmlns:dc="http://purl.org/dc/elements/1.1/"
   xmlns:cc="http://creativecommons.org/ns#"
   xmlns:rdf="http://www.w3.org/1999/02/22-rdf-syntax-ns#"
   xmlns:svg="http://www.w3.org/2000/svg"
   xmlns="http://www.w3.org/2000/svg"
   xmlns:xlink="http://www.w3.org/1999/xlink"
   xmlns:sodipodi="http://sodipodi.sourceforge.net/DTD/sodipodi-0.dtd"
   xmlns:inkscape="http://www.inkscape.org/namespaces/inkscape"
   
   viewBox="0 0 429.38096 133.83169"
   version="1.1"
   id="svg16"
   inkscape:version="1.0.1 (3bc2e813f5, 2020-09-07)"
   sodipodi:docname="drumsetbuilder-wide.svg"
   inkscape:export-filename="/home/dillonestrada/drumsetbuilder-nobackground.png"
   inkscape:export-xdpi="96"
   inkscape:export-ydpi="96">
  <defs
     id="defs10">
    <linearGradient
       inkscape:collect="always"
       id="linearGradient1052">
      <stop
         style="stop-color:#00ffff;stop-opacity:1;"
         offset="0"
         id="stop1048" />
      <stop
         style="stop-color:#8ab1ff;stop-opacity:1"
         offset="1"
         id="stop1050" />
    </linearGradient>
    <linearGradient
       inkscape:collect="always"
       id="linearGradient213">
      <stop
         style="stop-color:#00ffff;stop-opacity:1;"
         offset="0"
         id="stop209" />
      <stop
         style="stop-color:#6887ff;stop-opacity:1"
         offset="1"
         id="stop211" />
    </linearGradient>
    <linearGradient
       inkscape:collect="always"
       xlink:href="#linearGradient213"
       id="linearGradient215"
       x1="35.290012"
       y1="414.07608"
       x2="435.09"
       y2="121.41"
       gradientUnits="userSpaceOnUse" />
    <linearGradient
       inkscape:collect="always"
       xlink:href="#linearGradient213"
       id="linearGradient1046"
       x1="598.99524"
       y1="351.44217"
       x2="-104.89066"
       y2="185.90967"
       gradientUnits="userSpaceOnUse" />
    <radialGradient
       inkscape:collect="always"
       xlink:href="#linearGradient1052"
       id="radialGradient1058"
       cx="256"
       cy="256"
       fx="256"
       fy="256"
       r="88"
       gradientUnits="userSpaceOnUse" />
  </defs>
  <sodipodi:namedview
     id="base"
     pagecolor="#ffffff"
     bordercolor="#666666"
     borderopacity="1.0"
     inkscape:pageopacity="0.0"
     inkscape:pageshadow="2"
     inkscape:zoom="0.24748737"
     inkscape:cx="659.96878"
     inkscape:cy="537.92595"
     inkscape:document-units="mm"
     inkscape:current-layer="layer1"
     inkscape:document-rotation="0"
     showgrid="false"
     units="px"
     inkscape:window-width="1600"
     inkscape:window-height="852"
     inkscape:window-x="0"
     inkscape:window-y="48"
     inkscape:window-maximized="1"
     fit-margin-top="0"
     fit-margin-left="0"
     fit-margin-right="0"
     fit-margin-bottom="0" />
  <metadata
     id="metadata13">
    <rdf:RDF>
      <cc:Work
         rdf:about="">
        <dc:format>image/svg+xml</dc:format>
        <dc:type
           rdf:resource="http://purl.org/dc/dcmitype/StillImage" />
        <dc:title></dc:title>
      </cc:Work>
    </rdf:RDF>
  </metadata>
  <g
     inkscape:groupmode="layer"
     id="layer2"
     inkscape:label="background"
     style="display:none"
     transform="translate(-39.309525,-75.959151)">
    <rect
       style="fill:#5ebfff;fill-opacity:1;stroke-width:0.265089"
       id="rect1066"
       width="508"
       height="285.75"
       x="0"
       y="0" />
  </g>
  <g
     inkscape:label="Layer 1"
     inkscape:groupmode="layer"
     id="layer1"
     style="opacity:1"
     transform="translate(-39.309525,-75.959151)">
    <g
       style="fill:#ffffff"
       id="g169"
       transform="matrix(0.26982088,0,0,0.26982088,184.92586,73.800851)">
      <g
         id="g155"
         style="fill:#00ffff">
        <path
           d="m 477.81,224.54 a 221.608,221.608 0 0 0 -42.72,-103.13 32,32 0 0 0 -44.5,-44.5 221.608,221.608 0 0 0 -103.13,-42.72 31.99,31.99 0 0 0 -62.92,0 221.608,221.608 0 0 0 -103.13,42.72 32,32 0 0 0 -44.5,44.5 221.608,221.608 0 0 0 -42.72,103.13 31.99,31.99 0 0 0 0,62.92 221.608,221.608 0 0 0 42.72,103.13 32,32 0 0 0 44.5,44.5 221.608,221.608 0 0 0 103.13,42.72 31.99,31.99 0 0 0 62.92,0 221.608,221.608 0 0 0 103.13,-42.72 32,32 0 0 0 44.5,-44.5 221.608,221.608 0 0 0 42.72,-103.13 31.99,31.99 0 0 0 0,-62.92 z M 32.45,270.1 a 15.989,15.989 0 0 1 0,-28.2 C 32.16,246.58 32,251.27 32,256 c 0,4.73 0.16,9.42 0.45,14.1 z M 420.05,91.94 a 16.068,16.068 0 0 1 4,15.97 q -4.65,-5.28 -9.66,-10.3 -5.01,-5.02 -10.29,-9.65 a 16.035,16.035 0 0 1 15.95,3.98 z M 256,24 a 16.022,16.022 0 0 1 14.1,8.45 C 265.42,32.16 260.73,32 256,32 c -4.73,0 -9.42,0.16 -14.1,0.45 A 16.022,16.022 0 0 1 256,24 Z M 91.94,91.95 a 16.057,16.057 0 0 1 15.96,-3.99 q -5.265,4.65 -10.29,9.65 -5.025,5 -9.65,10.29 a 16.035,16.035 0 0 1 3.98,-15.95 z m 0.01,328.11 a 16.068,16.068 0 0 1 -4,-15.97 q 4.65,5.28 9.66,10.3 5.01,5.02 10.29,9.65 A 16.035,16.035 0 0 1 91.95,420.06 Z M 256,488 a 16.022,16.022 0 0 1 -14.1,-8.45 c 4.68,0.29 9.37,0.45 14.1,0.45 4.73,0 9.42,-0.16 14.1,-0.45 A 16.022,16.022 0 0 1 256,488 Z m 164.06,-67.95 a 16.068,16.068 0 0 1 -15.97,4 q 5.28,-4.65 10.3,-9.66 5.02,-5.01 9.65,-10.29 a 16.035,16.035 0 0 1 -3.98,15.95 z M 256,464 C 141.31,464 48,370.69 48,256 48,141.31 141.31,48 256,48 c 114.69,0 208,93.31 208,208 0,114.69 -93.31,208 -208,208 z M 479.55,270.1 c 0.29,-4.68 0.45,-9.37 0.45,-14.1 0,-4.73 -0.16,-9.42 -0.45,-14.1 a 15.989,15.989 0 0 1 0,28.2 z"
           id="path149"
           style="fill:url(#linearGradient1046);fill-opacity:1" />
        <path
           d="M 256,64 C 150.131,64 64,150.131 64,256 64,361.869 150.131,448 256,448 361.869,448 448,361.869 448,256 448,150.131 361.869,64 256,64 Z m 0,368 C 158.953,432 80,353.047 80,256 80,158.953 158.953,80 256,80 c 97.047,0 176,78.953 176,176 0,97.047 -78.953,176 -176,176 z"
           id="path151"
           style="fill:url(#linearGradient215);fill-opacity:1" />
        <path
           d="m 256,168 a 88,88 0 1 0 88,88 88.1,88.1 0 0 0 -88,-88 z m 0,160 a 72,72 0 1 1 72,-72 72.081,72.081 0 0 1 -72,72 z"
           id="path153"
           style="fill:url(#radialGradient1058);fill-opacity:1" />
      </g>
    </g>
  </g>
  <g
     inkscape:groupmode="layer"
     id="layer4"
     inkscape:label="text background"
     style="opacity:0.556634"
     transform="translate(-39.309525,-75.959151)">
    <rect
       style="opacity:1;fill:#5ebfff;fill-opacity:1;stroke-width:0.264583"
       id="rect1062"
       width="429.38095"
       height="48.380955"
       x="39.309525"
       y="119.44047" />
  </g>
  <g
     inkscape:groupmode="layer"
     id="layer3"
     inkscape:label="text"
     transform="translate(-39.309525,-75.959151)"
     style="opacity:1">
    <text
       xml:space="preserve"
       style="font-style:normal;font-variant:normal;font-weight:bold;font-stretch:normal;font-size:56.4444px;line-height:1.25;font-family:'Ubuntu Mono';-inkscape-font-specification:'Ubuntu Mono Bold';fill:#ffffff;fill-opacity:1;stroke:none;stroke-width:1.15596"
       x="41.120689"
       y="160.37276"
       id="text20"><tspan
         sodipodi:role="line"
         id="tspan18"
         x="41.120689"
         y="160.37276"
         style="font-style:normal;font-variant:normal;font-weight:bold;font-stretch:normal;font-size:56.4444px;font-family:'Ubuntu Mono';-inkscape-font-specification:'Ubuntu Mono Bold';fill:#ffffff;stroke-width:1.15596">DRUMSET BUILDER</tspan></text>
  </g>
</svg>
